<svg width="124" height="45" viewBox="0 0 124 45" fill="none" xmlns="http://www.w3.org/2000/svg">
<path d="M37.7507 39.4456L31.1856 35.7951L31.4316 35.6762C31.5364 35.6251 31.5901 35.5062 31.5558 35.3943L30.7226 32.5455V28.3923C30.7226 28.3559 30.7131 28.3218 30.6984 28.2903C31.8385 27.0881 32.7714 25.5821 33.4122 23.848C33.5558 23.4545 33.8676 23.1582 34.2623 23.0344C35.4414 22.6629 36.2331 21.6622 36.2331 20.5449C36.2331 19.6487 35.7312 18.8205 34.8909 18.3299C34.5401 18.1259 34.3086 17.7348 34.2721 17.288C34.2623 17.1665 34.2454 17.0451 34.2307 16.9236C37.1662 10.9659 34.5643 1.49609 23.6923 1.49609C12.8202 1.49609 10.6472 11.488 13.188 16.9115C13.1734 17.0378 13.1563 17.1617 13.1466 17.288C13.1076 17.7373 12.8762 18.1259 12.5254 18.3299C11.685 18.8205 11.1856 19.6487 11.1856 20.5449C11.1856 21.6622 11.9773 22.6629 13.1563 23.0344C13.551 23.1582 13.8604 23.4569 14.0065 23.848C14.6813 25.6793 15.6874 27.2508 16.9127 28.4871V32.5455L15.9992 35.5208C15.9627 35.6373 16.0212 35.7612 16.1332 35.8098L16.3817 35.9165L9.10276 39.4383C8.98338 39.4966 8.93468 39.64 8.99071 39.7589C9.03211 39.8439 9.11738 39.895 9.20751 39.895H21.5851C21.6046 39.9531 21.646 40.0017 21.7044 40.031C21.7386 40.0479 21.7751 40.0552 21.8116 40.0552C21.8993 40.0552 21.9846 40.0066 22.026 39.9241L22.0407 39.895H26.0017L26.0162 39.9241C26.0578 40.0066 26.143 40.0552 26.2307 40.0552C26.2672 40.0552 26.3038 40.0479 26.3378 40.031C26.3964 40.0017 26.4378 39.9507 26.4571 39.895H37.6339C37.7167 39.895 37.7995 39.8513 37.8433 39.7736C37.909 39.6593 37.8676 39.5137 37.7507 39.448V39.4456Z" fill="white"/>
<path d="M40.3117 8.8014C38.7698 8.65324 35.9416 8.58769 34.263 8.58769C33.961 8.58769 32.911 8.20393 32.7089 7.98048C32.5163 7.76918 34.6163 7.98534 34.5433 7.71088C34.2485 6.58394 33.3544 5.68044 32.324 5.12911C31.2936 4.57536 30.1291 4.33004 28.9769 4.13332C27.1913 3.82971 25.3471 3.64271 23.5201 3.64755C20.1924 3.65727 16.9135 4.30818 14.1194 6.05205C13.8027 6.24877 13.4836 6.47464 13.3203 6.8074C13.1084 7.24213 13.2058 7.78132 12.9915 8.21365C12.6431 8.91314 13.5907 9.09772 12.8088 9.10258C12.2314 9.10744 13.5396 8.67996 12.9622 8.68482L9.18879 8.71882H8.5944C3.84653 8.72126 0 12.5563 0 17.2875V31.0343C0 35.7656 3.84653 39.6007 8.59195 39.6007H8.64555C8.73325 39.671 8.82095 39.7416 8.91108 39.8095C8.98661 39.7318 9.07673 39.6613 9.18636 39.6007C10.5774 38.855 11.8855 38.2988 13.3691 37.7571C14.2728 37.4269 14.8818 36.9096 15.6565 36.3727C15.8465 36.2416 16.056 36.1615 16.2655 36.0911C16.1121 35.7558 15.9805 35.2895 16.0146 35.088C16.1291 34.4127 16.6431 33.8881 17.0231 33.349C17.0548 33.3053 17.0889 33.264 17.1255 33.2252C17.1547 31.7143 16.9793 30.1917 16.9598 28.6881C16.9598 28.6007 16.9671 28.5181 16.9842 28.4405C16.1924 27.5832 15.4933 26.6042 14.9427 25.6424C14.4482 24.7827 14.1048 23.8985 13.8758 22.9902C13.7637 22.9076 13.6468 22.8275 13.5274 22.7572C12.8551 22.3612 12.1121 22.1136 11.4714 21.6617C10.9135 21.2683 10.8794 20.6174 11.1255 20.1413C11.0913 20.0369 11.0694 19.9252 11.0694 19.7989C11.0694 19.2961 11.5079 18.7132 12.0439 18.6841C12.3654 18.327 12.6894 18.0113 13.1279 17.8291C13.1352 17.3094 13.1157 16.7896 13.1401 16.2699C13.1449 16.1897 13.1571 16.1169 13.1742 16.0464C13.1669 16.027 13.162 16.0076 13.1547 15.9881C12.7625 14.9438 12.3386 14.1058 12.2728 12.9643C12.2266 12.1604 12.9086 11.8131 13.5298 11.9102C13.4787 11.4245 13.7028 10.9071 14.2996 10.7201C14.324 10.7128 14.3508 10.7056 14.3752 10.6958C13.4811 9.52761 14.0171 7.8469 14.6602 6.68596C14.9354 6.19049 15.4032 6.06905 15.8246 6.17833C16.0804 5.69744 16.5457 5.457 17.1182 5.57114C19.9001 6.12977 22.6308 6.86812 25.3082 7.80318C25.8684 7.99748 26.1169 8.51239 26.0852 8.99328C27.2425 8.8937 28.3995 8.79654 29.559 8.7164C31.011 8.61682 32.6383 8.22335 33.9781 8.9277C35.1182 9.52519 34.3313 11.1209 33.24 10.9703C33.3399 11.1476 33.386 11.3516 33.386 11.5581C34.2143 13.1295 34.1584 14.7762 34.095 16.4885C34.0731 17.0641 34.0633 17.681 34.3825 18.1595C34.6503 18.5626 35.1035 18.7934 35.4908 19.08C35.8781 19.369 36.2412 19.8013 36.1753 20.2798C36.1412 20.5372 35.9879 20.7388 35.8855 20.9695C35.7978 21.1686 35.7929 21.4651 35.7076 21.6351C35.4982 22.0479 34.9769 22.2714 34.57 22.4438C34.363 22.5312 34.1729 22.5508 34.0073 22.5215C33.5055 23.0024 33.2887 23.6557 32.9867 24.5106C32.5359 25.7809 31.7662 26.891 30.8113 27.843C30.7089 27.9449 30.6041 28.0421 30.4994 28.1393C30.4725 28.1975 30.4433 28.2583 30.4019 28.3166C30.3363 28.4136 30.2777 28.5133 30.2192 28.6129C30.341 29.9196 30.5092 31.219 30.665 32.5232C30.7576 33.2955 30.8453 34.0678 30.9037 34.845C30.9306 35.1828 30.8478 35.8701 31.0646 36.1373C31.6126 36.8173 33.3617 37.2569 34.1388 37.5945C35.2765 38.0876 36.1363 38.7651 37.1425 39.4961C37.3593 39.6541 37.771 39.7172 37.8636 39.9624C49.3496 39.9624 47.4885 32.5547 47.4885 20.7947C47.4885 15.9468 46.2266 9.37703 40.307 8.80626L40.3117 8.8014Z" fill="#ABD7A0"/>
<path d="M33.9006 15.5293C34.0003 16.0515 34.076 16.5858 34.1222 17.1323C34.1661 17.6423 34.4268 18.1208 34.8699 18.3807C35.6179 18.8178 36.11 19.5683 36.11 20.4208C36.11 21.4797 35.3476 22.3809 34.2805 22.7185C33.808 22.869 33.4327 23.2285 33.2622 23.6923C31.6154 28.159 27.9273 31.2677 23.6398 31.2677C19.3524 31.2677 15.6642 28.1566 14.0174 23.6923C13.8469 23.2285 13.4742 22.8665 12.9992 22.7185C11.9322 22.3809 11.1697 21.4822 11.1697 20.4208C11.1697 19.5683 11.6642 18.8178 12.4096 18.3807C12.853 18.1208 13.1161 17.6423 13.1575 17.1323C13.2038 16.5882 13.2769 16.0515 13.3792 15.5293" stroke="black" stroke-width="0.4998" stroke-miterlimit="10" stroke-linecap="round"/>
<path d="M16.0454 12.6584C17.8822 11.8618 19.2683 11.7962 20.2939 12.0439C21.8188 12.4155 22.859 13.8242 22.859 15.3884V20.9162C22.859 22.473 24.7031 22.5045 24.7031 20.9162" stroke="black" stroke-width="0.4998" stroke-miterlimit="10" stroke-linecap="round"/>
<path d="M31.5147 12.5107C26.2649 10.235 24.7009 13.9121 24.7009 13.9121" stroke="black" stroke-width="0.4998" stroke-miterlimit="10" stroke-linecap="round"/>
<path d="M21.0757 23.9375C21.0757 23.9375 23.3265 25.781 26.1695 23.9375" stroke="black" stroke-width="0.4998" stroke-miterlimit="10" stroke-linecap="round"/>
<path d="M28.1091 17.8296C28.4548 17.8296 28.735 17.3697 28.735 16.8023C28.735 16.2349 28.4548 15.7749 28.1091 15.7749C27.7631 15.7749 27.4829 16.2349 27.4829 16.8023C27.4829 17.3697 27.7631 17.8296 28.1091 17.8296Z" fill="black"/>
<path d="M18.7972 17.8296C19.143 17.8296 19.4233 17.3697 19.4233 16.8023C19.4233 16.2349 19.143 15.7749 18.7972 15.7749C18.4514 15.7749 18.1711 16.2349 18.1711 16.8023C18.1711 17.3697 18.4514 17.8296 18.7972 17.8296Z" fill="black"/>
<path d="M22.5452 25.8081H24.7036" stroke="black" stroke-width="0.4998" stroke-miterlimit="10" stroke-linecap="round"/>
<path d="M13.16 17.1323C14.4755 15.6362 15.0309 8.75546 17.506 7.31762C21.0797 9.10763 24.9091 10.0039 27.4865 10.2249C31.5181 10.5697 33.0357 9.66624 33.0357 9.66624C33.0357 9.66624 32.7971 14.4874 34.1246 17.1347C37.4159 11.1162 34.9019 1.07812 23.6252 1.07812C12.3488 1.07812 10.2758 11.7331 13.16 17.1323Z" fill="black"/>
<path d="M12.1511 19.9523C12.1511 19.9523 13.5153 19.5588 13.7687 21.2056" stroke="black" stroke-width="0.4998" stroke-miterlimit="10" stroke-linecap="round"/>
<path d="M35.0709 19.9523C35.0709 19.9523 33.7069 19.5588 33.4534 21.2056" stroke="black" stroke-width="0.4998" stroke-miterlimit="10" stroke-linecap="round"/>
<path d="M18.6559 21.2056C20.3457 21.2056 21.7155 19.8398 21.7155 18.155C21.7155 16.4703 20.3457 15.1045 18.6559 15.1045C16.9661 15.1045 15.5962 16.4703 15.5962 18.155C15.5962 19.8398 16.9661 21.2056 18.6559 21.2056Z" stroke="black" stroke-width="0.4998" stroke-miterlimit="10" stroke-linecap="round"/>
<path d="M28.3168 21.2056C30.0066 21.2056 31.3763 19.8398 31.3763 18.155C31.3763 16.4703 30.0066 15.1045 28.3168 15.1045C26.6268 15.1045 25.2571 16.4703 25.2571 18.155C25.2571 19.8398 26.6268 21.2056 28.3168 21.2056Z" stroke="black" stroke-width="0.4998" stroke-miterlimit="10" stroke-linecap="round"/>
<path d="M21.6958 17.8293C21.6958 17.8293 23.647 16.5688 25.2744 17.8293" stroke="black" stroke-width="0.4998" stroke-miterlimit="10" stroke-linecap="round"/>
<path d="M16.9839 28.3872V32.6375L23.9803 34.7361L30.5187 32.6375V28.3872" stroke="black" stroke-width="0.4998" stroke-miterlimit="10" stroke-linecap="round"/>
<path d="M16.9833 32.6377L16.0454 35.693L21.6191 38.0853L23.9797 34.736L26.1989 38.0853L31.3755 35.5642L30.5181 32.6377" stroke="black" stroke-width="0.4998" stroke-linecap="round" stroke-linejoin="round"/>
<path d="M22.1116 37.3882C22.3894 38.1412 23.1152 38.678 23.9655 38.678C24.8156 38.678 25.4856 38.1824 25.7852 37.4756" stroke="black" stroke-width="0.4998" stroke-linecap="round" stroke-linejoin="round"/>
<path d="M16.7867 36.0137L8.91821 39.8195" stroke="black" stroke-width="0.4998" stroke-linecap="round" stroke-linejoin="round"/>
<path d="M30.9312 36.0137L38.0274 39.9846" stroke="black" stroke-width="0.4998" stroke-linecap="round" stroke-linejoin="round"/>
<path d="M22.5456 38.3286L21.7148 39.9849" stroke="black" stroke-width="0.4998" stroke-linecap="round" stroke-linejoin="round"/>
<path d="M25.3687 38.3286L26.2018 39.9849" stroke="black" stroke-width="0.4998" stroke-linecap="round" stroke-linejoin="round"/>
<path d="M40.1249 37.4244C42.595 37.4244 44.5974 35.4279 44.5974 32.9652C44.5974 30.5023 42.595 28.5059 40.1249 28.5059C37.6548 28.5059 35.6523 30.5023 35.6523 32.9652C35.6523 35.4279 37.6548 37.4244 40.1249 37.4244Z" fill="black"/>
<path d="M37.8574 32.5258C38.6857 33.2593 39.4946 34.4106 39.4946 34.4106C39.4946 34.4106 40.6955 32.9557 42.3738 31.5811" fill="black"/>
<path d="M38.019 32.3462C38.7182 32.8757 39.3076 33.4805 39.8825 34.1409L39.1322 34.1119C40.0896 33.1063 41.1079 32.2126 42.2189 31.3893C42.4673 31.2071 42.762 31.5617 42.5329 31.7706C41.566 32.6667 40.6525 33.6674 39.8607 34.7093C39.7096 34.911 39.4222 34.9523 39.2223 34.7992C38.7182 34.1192 38.3017 33.3176 37.6974 32.7009C37.5001 32.4943 37.7973 32.1689 38.019 32.3462Z" fill="white"/>
<path d="M66.4505 21.2879V10.8005L63.0399 21.2879H60.319L56.9302 10.8005V21.2879H54.6965V9.15381H58.8085L61.8268 19.1555L64.8451 9.15381H68.8865V21.2879H66.4505Z" fill="black"/>
<path d="M81.414 19.7532C80.2496 20.9336 78.7782 21.5238 77.0049 21.5238C75.2313 21.5238 73.7599 20.9336 72.5955 19.7532C71.4312 18.5728 70.8489 17.0621 70.8489 15.2211C70.8489 13.3801 71.4312 11.8694 72.5955 10.689C73.7599 9.50865 75.2313 8.91846 77.0049 8.91846C78.7782 8.91846 80.2496 9.50865 81.414 10.689C82.5785 11.8694 83.1606 13.3801 83.1606 15.2211C83.1606 17.0621 82.5785 18.5728 81.414 19.7532ZM74.3422 18.1648C75.0463 18.9201 75.9353 19.2966 77.0049 19.2966C78.0742 19.2966 78.961 18.9201 79.6675 18.1648C80.3738 17.4094 80.7246 16.4282 80.7246 15.2211C80.7246 14.014 80.3713 13.0304 79.6675 12.2775C78.9634 11.5245 78.0742 11.1456 77.0049 11.1456C75.9353 11.1456 75.0463 11.5221 74.3422 12.2775C73.6357 13.0328 73.2849 14.014 73.2849 15.2211C73.2849 16.4282 73.6382 17.4119 74.3422 18.1648Z" fill="black"/>
<path d="M87.4435 9.15397V18.835L93.0171 9.15397H96.1085V21.288H93.7795V11.607L88.2058 21.288H85.1145V9.15397H87.4435ZM92.2935 3.08691H94.2425C94.2425 4.21629 93.9062 5.10522 93.2315 5.75369C92.5566 6.40218 91.6676 6.72521 90.5566 6.72521C89.4459 6.72521 88.5713 6.40218 87.9062 5.75369C87.2411 5.10522 86.9075 4.21629 86.9075 3.08691H88.8563C88.8563 3.72568 89.0172 4.20657 89.3386 4.52717C89.6603 4.84776 90.0647 5.00806 90.5566 5.00806C91.0804 5.00806 91.4995 4.8502 91.8161 4.53445C92.1328 4.21871 92.2913 3.73538 92.2913 3.08933L92.2935 3.08691Z" fill="black"/>
<path d="M69.6165 28.3313C70.7787 29.5115 71.3583 31.0224 71.3583 32.8632C71.3583 34.7043 70.7787 36.215 69.6165 37.3954C68.4546 38.5758 66.9906 39.1659 65.2244 39.1659C63.6386 39.1659 62.2891 38.6826 61.1708 37.7134C60.0527 36.7469 59.3851 35.4766 59.161 33.9027H57.1172V38.928H54.6934V26.7938H57.1172V31.6999H59.1855C59.4314 30.16 60.1088 28.9165 61.2171 27.9742C62.3256 27.0295 63.6629 26.5581 65.2219 26.5581C66.9882 26.5581 68.4522 27.1484 69.6141 28.3288L69.6165 28.3313ZM62.574 35.8093C63.2707 36.5647 64.155 36.9411 65.2244 36.9411C66.2939 36.9411 67.1805 36.5647 67.8821 35.8093C68.5837 35.0541 68.9345 34.0727 68.9345 32.8657C68.9345 31.6586 68.5837 30.675 67.8821 29.922C67.1805 29.1666 66.2964 28.7902 65.2244 28.7902C64.1526 28.7902 63.2707 29.1666 62.574 29.922C61.8773 30.6775 61.5289 31.6586 61.5289 32.8657C61.5289 34.0727 61.8773 35.0565 62.574 35.8093Z" fill="black"/>
<path d="M79.7377 39.1684C78.929 39.1684 78.1835 38.9886 77.4964 38.6291C76.8095 38.2698 76.2274 37.762 75.7426 37.1062V44.9999H73.3186V26.7962H75.7426V28.6202C76.225 27.9644 76.8095 27.4569 77.4964 27.0974C78.1811 26.7379 78.929 26.5581 79.7377 26.5581C81.4185 26.5581 82.8119 27.1484 83.9204 28.3288C85.0289 29.5091 85.5843 31.0199 85.5843 32.8608C85.5843 34.7019 85.0289 36.2125 83.9204 37.393C82.8119 38.5734 81.416 39.1635 79.7377 39.1635V39.1684ZM76.795 35.8093C77.4964 36.5647 78.3808 36.9411 79.4528 36.9411C80.5245 36.9411 81.4064 36.5647 82.1031 35.8093C82.7999 35.0541 83.1482 34.0727 83.1482 32.8657C83.1482 31.6586 82.7999 30.675 82.1031 29.922C81.4064 29.1666 80.5221 28.7902 79.4528 28.7902C78.3832 28.7902 77.4964 29.1666 76.795 29.922C76.0934 30.6775 75.7426 31.6586 75.7426 32.8657C75.7426 34.0727 76.0934 35.0565 76.795 35.8093Z" fill="black"/>
<path d="M89.8798 26.7964V36.4775L95.4535 26.7964H98.5448V38.9306H96.2161V29.2495L90.6424 38.9306H87.551V26.7964H89.8798Z" fill="black"/>
<path d="M110.084 31.632C109.965 30.7381 109.582 30.041 108.937 29.5408C108.291 29.0379 107.511 28.7878 106.6 28.7878C105.555 28.7878 104.688 29.1642 104.004 29.9196C103.319 30.675 102.976 31.6562 102.976 32.8632C102.976 34.0703 103.319 35.0541 104.004 35.8069C104.688 36.5623 105.555 36.9387 106.6 36.9387C107.528 36.9387 108.318 36.6668 108.971 36.1202C109.624 35.5763 110.011 34.8135 110.13 33.8324H112.661C112.566 35.4207 111.95 36.7056 110.812 37.6892C109.675 38.6728 108.271 39.1635 106.598 39.1635C104.924 39.1635 103.399 38.5734 102.254 37.393C101.109 36.2125 100.537 34.7019 100.537 32.8608C100.537 31.0199 101.109 29.5091 102.254 28.3288C103.399 27.1484 104.846 26.5581 106.598 26.5581C108.215 26.5581 109.582 27.027 110.705 27.962C111.826 28.8972 112.462 30.1211 112.612 31.6295H110.081L110.084 31.632Z" fill="black"/>
<path d="M113.3 29.0236V26.7964H123.617V29.0236H119.67V38.9306H117.247V29.0236H113.3Z" fill="black"/>
<path d="M35.2904 8.67176C34.0765 4.52031 30.3802 1 23.5946 1C16.809 1 13.3644 4.63774 12.1479 8.77207" stroke="#ABD7A0" stroke-width="0.4998" stroke-miterlimit="10"/>
</svg>